# xmcd
#
# Track frame offsets:
#       150
#       11677
#       23515
#       35925
#       54695
#       71082
#       81869
#       90486
#       100677
#       113212
#       124472
#       138275
#       148344
#       159980
#       167973
#       176823
#       186781
#       196056
#       202705
#       213044
#       224491
#
# Disc length: 3209 seconds
#
# Revision: 0
# Processed by: cddbd v1.5.2PL0 Copyright (c) Steve Scherf et al.
# Submitted via: WaveLab 6.01
#
DISCID=2f0c8715
DTITLE=NG Liedboek - Liedboek vol2
DYEAR=2002
DGENRE=Gospel
TTITLE0=01 01 Praat ek mense engele tale
TTITLE1=02 02 Ons Vader wat woon in die hemel
TTITLE2=03 03 Laat ons sing van ons Verlosser
TTITLE3=04 04 Ek weet verseker
TTITLE4=05 05 Leer my U wil Heer and Wees stil en weet Ek is die Heer
TTITLE5=06 06 Soek allereers die koninkryk van God
TTITLE6=07 07 U het die brood gebreek
TTITLE7=08 08 Besing die lof can Jesus saam
TTITLE8=09 Welkom i stille nag van vrede
TTITLE9=10 10 Jesus groot bo almal
TTITLE10=11 Heilig Heilig Heilig
TTITLE11=12 Lofsing die Heer
TTITLE12=13 U goedheid Heer kan ons nie peil nie
TTITLE13=14 Lofsing die Heer buig voor Hom neer
TTITLE14=15 Aan Jesus Koning al die eer
TTITLE15=16 Heilige Jesus
TTITLE16=17 Ons is almal hier tesaam
TTITLE17=18 Vader in die Hemel
TTITLE18=19 Vaste rots op wie ek bou
TTITLE19=20 Kom dank nou almal God
TTITLE20=21 Ek sien 'n nuwe hemel kom
EXTD=
EXTT0=
EXTT1=
EXTT2=
EXTT3=
EXTT4=
EXTT5=
EXTT6=
EXTT7=
EXTT8=
EXTT9=
EXTT10=
EXTT11=
EXTT12=
EXTT13=
EXTT14=
EXTT15=
EXTT16=
EXTT17=
EXTT18=
EXTT19=
EXTT20=
PLAYORDER=
